<svg width="48" height="48" viewBox="0 0 48 48" fill="none" xmlns="http://www.w3.org/2000/svg">
<path fill-rule="evenodd" clip-rule="evenodd" d="M42 4H6C4.34314 4 3 5.34315 3 7V27.6809C3 29.3377 4.34315 30.6809 6 30.6809H42C43.6569 30.6809 45 29.3377 45 27.6809V7C45 5.34315 43.6569 4 42 4ZM6 1C2.68629 1 0 3.68629 0 7V27.6809C0 30.9946 2.68629 33.6809 6 33.6809H42C45.3137 33.6809 48 30.9946 48 27.6809V7C48 3.68629 45.3137 1 42 1H6Z" fill="#1B344B"/>
<path fill-rule="evenodd" clip-rule="evenodd" d="M20.4415 5.50469C21.0972 5.55648 21.6427 6.02942 21.7869 6.67117L24.9956 20.9508L29.1401 10.5819C29.3726 10.0001 29.9423 9.62413 30.5687 9.63907C31.1951 9.65402 31.7462 10.0567 31.9508 10.649L34.2006 17.1634H40C40.8284 17.1634 41.5 17.835 41.5 18.6634C41.5 19.4918 40.8284 20.1634 40 20.1634H33.1317C32.492 20.1634 31.9227 19.7577 31.7139 19.1531L30.4304 15.4367L25.9857 26.5568C25.7417 27.1671 25.1288 27.5476 24.4735 27.4953C23.8183 27.443 23.2734 26.9702 23.1293 26.3289L19.9235 12.0623L17.0764 19.2179C16.8492 19.7888 16.297 20.1634 15.6826 20.1634H8C7.17157 20.1634 6.5 19.4918 6.5 18.6634C6.5 17.835 7.17157 17.1634 8 17.1634H14.6651L18.9296 6.44548C19.1728 5.83433 19.7858 5.4529 20.4415 5.50469Z" fill="#1B344B"/>
<path fill-rule="evenodd" clip-rule="evenodd" d="M24 32.5C24.8284 32.5 25.5 33.1716 25.5 34V41C25.5 41.8284 24.8284 42.5 24 42.5C23.1716 42.5 22.5 41.8284 22.5 41V34C22.5 33.1716 23.1716 32.5 24 32.5Z" fill="#1B344B"/>
<path fill-rule="evenodd" clip-rule="evenodd" d="M15.3617 38.3793C15.6051 37.8438 16.1391 37.5 16.7273 37.5H24C24.8284 37.5 25.5 38.1716 25.5 39C25.5 39.8284 24.8284 40.5 24 40.5H17.6931L16.3295 43.5H31.7342L30.4615 40.5H28.1818C27.3534 40.5 26.6818 39.8284 26.6818 39C26.6818 38.1716 27.3534 37.5 28.1818 37.5H31.4545C32.0566 37.5 32.6003 37.8599 32.8354 38.4142L35.3809 44.4142C35.5774 44.8774 35.5285 45.4084 35.2508 45.828C34.973 46.2476 34.5032 46.5 34 46.5H14C13.49 46.5 13.0149 46.2409 12.7388 45.8121C12.4627 45.3833 12.4234 44.8436 12.6345 44.3793L15.3617 38.3793Z" fill="#1B344B"/>
</svg>
